<svg width="64" height="64" viewBox="0 0 64 64" fill="none" xmlns="http://www.w3.org/2000/svg">
<g clip-path="url(#clip0_82_2385)">
<path d="M48 0H16C7.16344 0 0 7.16344 0 16V48C0 56.8366 7.16344 64 16 64H48C56.8366 64 64 56.8366 64 48V16C64 7.16344 56.8366 0 48 0Z" fill="#08090A"/>
<path d="M12.873 27.7125C12.9964 27.709 13.1233 27.7445 13.2344 27.8287L13.2988 27.8863L36.1143 50.7008C36.1351 50.7217 36.1539 50.7436 36.1709 50.7662C36.2968 50.9324 36.3146 51.1337 36.2529 51.3053C36.2018 51.4507 36.0935 51.5741 35.9365 51.6363C35.9038 51.6495 35.8695 51.6614 35.833 51.6686C35.0694 51.8176 34.2978 51.9216 33.5244 51.9811C33.3733 51.9927 33.227 51.9412 33.1113 51.8453C33.097 51.8334 33.0807 51.8235 33.0674 51.8102L12.1895 30.9322C12.069 30.8118 12.0055 30.645 12.0186 30.4752C12.0334 30.282 12.0508 30.0889 12.0713 29.8961C12.0906 29.714 12.1124 29.5319 12.1367 29.3502C12.1417 29.3127 12.1481 29.2754 12.1533 29.2379C12.2033 28.8796 12.2617 28.5221 12.3311 28.1666C12.3411 28.1155 12.3573 28.0677 12.3789 28.024C12.3979 27.9849 12.4219 27.9498 12.4482 27.9176C12.4535 27.9112 12.4593 27.9052 12.4648 27.899C12.485 27.8765 12.506 27.8551 12.5293 27.8365L12.5635 27.8121C12.5654 27.8108 12.5674 27.8095 12.5693 27.8082C12.5828 27.7993 12.5962 27.7905 12.6104 27.7828C12.6209 27.777 12.6317 27.7714 12.6426 27.7662C12.65 27.7628 12.6575 27.7596 12.665 27.7565C12.6829 27.7489 12.7012 27.7426 12.7197 27.7369C12.723 27.736 12.7262 27.7349 12.7295 27.734C12.7753 27.7207 12.8229 27.714 12.8711 27.7125H12.873Z" fill="white"/>
<path d="M12.9873 36.2057C13.0343 36.1987 13.0824 36.198 13.1309 36.2037C13.1397 36.2047 13.1484 36.2062 13.1572 36.2076C13.1768 36.2109 13.1964 36.2148 13.2158 36.2203C13.2233 36.2224 13.2308 36.2247 13.2383 36.2272C13.2597 36.2342 13.2808 36.2427 13.3018 36.2526C13.3079 36.2554 13.3142 36.2582 13.3203 36.2613C13.3437 36.2733 13.3662 36.2877 13.3887 36.3033C13.3924 36.3059 13.3967 36.3075 13.4004 36.3102C13.4197 36.3243 13.4376 36.341 13.4561 36.358C13.4629 36.3643 13.4708 36.3699 13.4775 36.3766L27.624 50.5221C27.6363 50.5344 27.6463 50.5484 27.6572 50.5611C27.6665 50.572 27.6762 50.5822 27.6846 50.5934C27.6921 50.6035 27.6983 50.6143 27.7051 50.6246C27.7166 50.642 27.727 50.6595 27.7363 50.6774C27.7404 50.6852 27.7444 50.6929 27.748 50.7008C27.756 50.7179 27.7625 50.7352 27.7686 50.7526C27.7728 50.7646 27.777 50.7765 27.7803 50.7887C27.7845 50.8043 27.7882 50.8199 27.791 50.8356C27.7933 50.8483 27.7955 50.8609 27.7969 50.8736C27.798 50.8838 27.7983 50.8938 27.7988 50.9039C27.7997 50.921 27.7995 50.9378 27.7988 50.9547C27.7981 50.9722 27.7963 50.9893 27.7939 51.0065C27.7926 51.0159 27.7918 51.0254 27.79 51.0348C27.7886 51.0423 27.7869 51.0498 27.7852 51.0572C27.7637 51.1484 27.7188 51.2315 27.6562 51.2994C27.6505 51.3057 27.6448 51.3119 27.6387 51.318C27.6308 51.3258 27.6227 51.3332 27.6143 51.3404C27.5801 51.37 27.5414 51.3977 27.4961 51.4186C27.4921 51.4204 27.4874 51.4207 27.4834 51.4225C27.459 51.433 27.4338 51.4422 27.4072 51.4488C27.4008 51.4504 27.3941 51.4504 27.3877 51.4518C27.3657 51.4564 27.3436 51.4617 27.3203 51.4635C27.3028 51.4649 27.2852 51.4638 27.2676 51.4635C27.2534 51.4632 27.2391 51.4638 27.2246 51.4625C27.1926 51.4596 27.1604 51.4547 27.1289 51.4469C26.6811 51.3355 26.2366 51.2078 25.7959 51.0651C22.8806 50.1211 20.1388 48.4919 17.8232 46.1764C15.1578 43.5109 13.4007 40.2806 12.5527 36.8707L12.5361 36.7789C12.5331 36.7477 12.5339 36.7164 12.5361 36.6852C12.5367 36.6773 12.5372 36.6695 12.5381 36.6617C12.5405 36.6408 12.5439 36.6199 12.5488 36.5992C12.5505 36.5924 12.5518 36.5855 12.5537 36.5787C12.5609 36.5533 12.5698 36.5281 12.5811 36.5035C12.5859 36.493 12.5922 36.4832 12.5977 36.4733C12.6198 36.4328 12.6462 36.3954 12.6777 36.3629L12.6826 36.358C12.7223 36.3182 12.7663 36.2868 12.8105 36.2633L12.8887 36.2291C12.9134 36.2206 12.939 36.2135 12.9648 36.2086C12.9722 36.2072 12.9798 36.2068 12.9873 36.2057Z" fill="white"/>
<path d="M15.0322 21.693C15.1553 21.6652 15.287 21.6743 15.4062 21.7301C15.4668 21.7584 15.5235 21.7985 15.5742 21.8492L42.1514 48.4254C42.1661 48.4401 42.1786 48.4565 42.1914 48.4723C42.2539 48.5489 42.2905 48.6363 42.3086 48.7262C42.3551 48.9565 42.2649 49.2048 42.042 49.3346L41.6191 49.5738C41.1946 49.8072 40.7632 50.024 40.3262 50.2242C40.2842 50.2435 40.2402 50.2548 40.1963 50.2633C40.1878 50.265 40.1794 50.2669 40.1709 50.2682C40.151 50.2711 40.1312 50.2722 40.1113 50.2731C40.1054 50.2733 40.0996 50.274 40.0937 50.274C40.0744 50.2743 40.0553 50.2738 40.0361 50.2721C40.0276 50.2713 40.0192 50.2703 40.0107 50.2692C39.9947 50.267 39.9787 50.2648 39.9629 50.2613C39.9477 50.258 39.9329 50.2532 39.918 50.2486C39.9086 50.2458 39.8989 50.2442 39.8896 50.2408C39.8375 50.2221 39.7871 50.1963 39.7412 50.1627L39.6719 50.1031L13.8965 24.3277C13.8442 24.2754 13.8043 24.2141 13.7754 24.149C13.731 24.0486 13.7145 23.9381 13.7305 23.8297C13.7382 23.7769 13.7533 23.7247 13.7764 23.6744C13.932 23.3349 14.0979 22.9987 14.2734 22.6666C14.2989 22.6183 14.3247 22.5702 14.3506 22.5221C14.4422 22.3522 14.5359 22.183 14.6328 22.0152C14.6439 21.9961 14.6549 21.9768 14.666 21.9576C14.6779 21.9373 14.6913 21.9182 14.7051 21.9C14.7889 21.7891 14.9062 21.7213 15.0322 21.693Z" fill="white"/>
<path d="M32.1396 12.0016C32.1969 12.002 32.2542 12.0026 32.3115 12.0035C32.3981 12.005 32.4847 12.0068 32.5713 12.0094C32.6625 12.0121 32.7536 12.0152 32.8447 12.0192C32.9066 12.0218 32.9684 12.0247 33.0303 12.0279C33.1205 12.0327 33.2106 12.0376 33.3008 12.0436C33.374 12.0484 33.4473 12.0536 33.5205 12.0592C33.6035 12.0656 33.6866 12.0723 33.7695 12.0797C33.8506 12.0869 33.9317 12.0949 34.0127 12.1031C34.084 12.1104 34.1553 12.1186 34.2266 12.1266C34.3174 12.1368 34.4083 12.1474 34.499 12.1588C34.5567 12.1661 34.6143 12.1735 34.6719 12.1813C34.7709 12.1946 34.8699 12.2084 34.9687 12.2233C35.0424 12.2343 35.1159 12.2465 35.1895 12.2584C35.2654 12.2707 35.3412 12.2834 35.417 12.2965C35.4965 12.3103 35.5759 12.3247 35.6553 12.3395C35.7384 12.3549 35.8214 12.3708 35.9043 12.3873C35.9682 12.4 36.0319 12.413 36.0957 12.4264C36.1863 12.4453 36.2768 12.4648 36.3672 12.485C36.447 12.5028 36.5268 12.5208 36.6064 12.5397C36.6785 12.5567 36.7504 12.5745 36.8223 12.5924C36.9025 12.6123 36.9825 12.633 37.0625 12.6539C37.1374 12.6735 37.2124 12.693 37.2871 12.7135C37.381 12.7392 37.4748 12.7655 37.5684 12.7926C37.6195 12.8074 37.6706 12.8223 37.7217 12.8375C37.8163 12.8657 37.9106 12.8948 38.0049 12.9244C38.075 12.9465 38.1449 12.969 38.2148 12.9918C38.3069 13.0219 38.3986 13.0531 38.4902 13.0846C38.5384 13.1011 38.5867 13.1175 38.6348 13.1344C38.7419 13.172 38.8485 13.2111 38.9551 13.2506C39.0049 13.2691 39.0548 13.2874 39.1045 13.3063C39.1946 13.3405 39.2843 13.3761 39.374 13.4117C39.4388 13.4374 39.5038 13.4625 39.5684 13.4889C39.638 13.5174 39.707 13.5475 39.7764 13.5768C39.8591 13.6117 39.9421 13.6461 40.0244 13.6822C40.0796 13.7064 40.1344 13.7317 40.1895 13.7565C40.2878 13.8007 40.3866 13.8444 40.4844 13.8902C40.5243 13.909 40.5637 13.9289 40.6035 13.9479C40.6862 13.9873 40.7693 14.0263 40.8516 14.067L40.9414 14.1119C40.9924 14.1375 41.0429 14.1641 41.0937 14.1901C41.1746 14.2314 41.2556 14.2725 41.3359 14.3151C41.3919 14.3447 41.4472 14.3757 41.5029 14.4059C41.5936 14.4549 41.6844 14.5038 41.7744 14.5543C41.8162 14.5778 41.8577 14.6018 41.8994 14.6256C42.0019 14.6841 42.1044 14.7429 42.2061 14.8033C42.2327 14.8192 42.2586 14.8362 42.2852 14.8522C42.3994 14.9209 42.5138 14.9899 42.627 15.0611C42.8308 15.1894 43.0323 15.3223 43.2324 15.4586C43.2912 15.4987 43.3507 15.538 43.4092 15.5787C43.5462 15.6742 43.6823 15.7714 43.8174 15.8707C43.8262 15.8772 43.8349 15.8838 43.8437 15.8902C43.8763 15.9142 43.908 15.9393 43.9404 15.9635C44.0441 16.0409 44.1475 16.1191 44.25 16.1988C44.4429 16.3488 44.6328 16.5037 44.8213 16.6617C44.8827 16.7132 44.9449 16.7637 45.0059 16.816C45.3926 17.1481 45.7694 17.4975 46.1357 17.8639C49.1898 20.9179 51.0516 24.7131 51.7197 28.6705C51.7349 28.7605 51.7478 28.8509 51.7617 28.941C51.7968 29.1678 51.8291 29.395 51.8564 29.6227C51.8756 29.782 51.8929 29.9415 51.9082 30.1012C52.458 35.8439 50.5336 41.7785 46.1357 46.1764C45.918 46.3942 45.6968 46.6064 45.4717 46.8121C45.3856 46.8907 45.2821 46.938 45.1748 46.9547C45.1036 46.9658 45.0306 46.9634 44.96 46.9479C44.8536 46.9244 44.7524 46.871 44.6699 46.7887L17.2119 19.3307C16.9922 19.1109 16.9789 18.7574 17.1885 18.5279C17.3941 18.303 17.6057 18.0816 17.8232 17.8639C17.9455 17.7416 18.0688 17.621 18.1934 17.5026C18.5615 17.1526 18.9398 16.8191 19.3271 16.5026C19.3824 16.4574 19.4385 16.4133 19.4941 16.3688C19.699 16.2049 19.9056 16.0448 20.1152 15.8902C20.1831 15.8402 20.252 15.7918 20.3203 15.7428C20.3927 15.6908 20.4641 15.6375 20.5371 15.5865C20.5752 15.56 20.6141 15.5347 20.6523 15.5084C20.8833 15.3496 21.1165 15.1955 21.3525 15.0475C21.4717 14.9727 21.5916 14.8997 21.7119 14.8277C21.7247 14.8201 21.7372 14.8119 21.75 14.8043C21.7688 14.7931 21.7878 14.7822 21.8066 14.7711C21.9487 14.6872 22.0917 14.6051 22.2354 14.525C22.3086 14.4842 22.3824 14.4447 22.4561 14.4049C22.5157 14.3726 22.5749 14.3398 22.6348 14.3082C22.7064 14.2704 22.7786 14.2338 22.8506 14.1969C22.9088 14.1671 22.967 14.1372 23.0254 14.108L23.1074 14.067C23.1697 14.0362 23.2324 14.0063 23.2949 13.9762C23.3638 13.943 23.4327 13.9099 23.502 13.8776C23.5853 13.8386 23.6692 13.801 23.7529 13.7633C23.8138 13.7359 23.8745 13.708 23.9355 13.6813C24.0175 13.6453 24.1003 13.6115 24.1826 13.5768C24.2555 13.546 24.3282 13.5149 24.4014 13.485C24.4585 13.4617 24.516 13.4394 24.5732 13.4166C24.6656 13.3799 24.7577 13.3425 24.8506 13.3072C24.9246 13.2791 24.999 13.2524 25.0732 13.2252C25.1442 13.1992 25.2149 13.1723 25.2861 13.1471C25.388 13.111 25.4905 13.0769 25.5928 13.0426C25.6335 13.0289 25.6741 13.015 25.7148 13.0016C25.8188 12.9674 25.923 12.9344 26.0273 12.902C26.0866 12.8836 26.1457 12.8651 26.2051 12.8473C26.286 12.823 26.3671 12.7992 26.4482 12.776C26.5201 12.7554 26.592 12.7352 26.6641 12.7154C26.7427 12.6939 26.8216 12.6735 26.9004 12.6529C26.984 12.6311 27.0675 12.6092 27.1514 12.5885C27.2145 12.5729 27.2776 12.5576 27.3408 12.5426C27.4267 12.5222 27.5126 12.5022 27.5986 12.483C27.6767 12.4656 27.7548 12.4487 27.833 12.4322C27.9215 12.4136 28.01 12.395 28.0986 12.3776C28.1457 12.3683 28.1931 12.3601 28.2402 12.3512C28.3505 12.3303 28.4608 12.3096 28.5713 12.2906C28.6376 12.2792 28.7041 12.2691 28.7705 12.2584C28.8408 12.2471 28.9111 12.2358 28.9814 12.2252C29.0855 12.2095 29.1897 12.1943 29.2939 12.1803C29.3522 12.1724 29.4105 12.1652 29.4687 12.1578C29.555 12.147 29.6412 12.1363 29.7275 12.1266C29.8001 12.1184 29.8727 12.1105 29.9453 12.1031C30.0419 12.0933 30.1386 12.0852 30.2353 12.0768C30.2904 12.072 30.3453 12.0665 30.4004 12.0621C30.5003 12.0543 30.6002 12.048 30.7002 12.0416C30.7669 12.0374 30.8336 12.0335 30.9004 12.0299C30.9821 12.0255 31.0638 12.0216 31.1455 12.0182C31.2217 12.015 31.2978 12.0117 31.374 12.0094C31.4704 12.0065 31.5667 12.0041 31.6631 12.0026C31.7152 12.0017 31.7673 12.002 31.8193 12.0016C31.9261 12.0007 32.0329 12.0007 32.1396 12.0016Z" fill="white"/>
</g>
<defs>
<clipPath id="clip0_82_2385">
<rect width="64" height="64" fill="white"/>
</clipPath>
</defs>
</svg>
